<?xml version="1.0" encoding="UTF-8" standalone="no"?>
<!-- Created with Inkscape (http://www.inkscape.org/) -->

<svg
   width="239.79149mm"
   height="101.00601mm"
   viewBox="0 0 239.79149 101.00601"
   version="1.1"
   id="svg1"
   xmlns="http://www.w3.org/2000/svg"
   xmlns:svg="http://www.w3.org/2000/svg">
  <defs
     id="defs1">
    <linearGradient
       id="swatch16">
      <stop
         style="stop-color:#eeeff1;stop-opacity:1;"
         offset="0"
         id="stop16" />
    </linearGradient>
    <filter
       style="color-interpolation-filters:sRGB"
       id="filter4"
       x="-0.12848551"
       y="-0.49993752"
       width="1.2837388"
       height="2.1040287">
      <feFlood
         result="flood"
         in="SourceGraphic"
         flood-opacity="0.498039"
         flood-color="rgb(0,0,0)"
         id="feFlood3" />
      <feGaussianBlur
         result="blur"
         in="SourceGraphic"
         stdDeviation="10.000000"
         id="feGaussianBlur3" />
      <feOffset
         result="offset"
         in="blur"
         dx="5.000000"
         dy="5.000000"
         id="feOffset3" />
      <feComposite
         result="comp1"
         operator="in"
         in="flood"
         in2="offset"
         id="feComposite3" />
      <feComposite
         result="comp2"
         operator="over"
         in="SourceGraphic"
         in2="comp1"
         id="feComposite4" />
    </filter>
  </defs>
  <path
     d="m 30.908802,72.006 q -3.1496,0 -5.0292,-2.286 -1.8796,-2.286 -1.8796,-5.9944 0,-4.064 1.8796,-7.6708 1.8796,-3.657599 4.9784,-5.841999 3.1496,-2.2352 6.6548,-2.2352 1.1176,0 1.4732,0.4572 0.4064,0.4064 0.6604,1.524 1.0668,-0.2032 2.2352,-0.2032 2.4892,0 2.4892,1.778 0,1.0668 -0.762,5.079999 -1.1684,5.842 -1.1684,8.128 0,0.762 0.3556,1.2192 0.4064,0.4572 1.016,0.4572 0.9652,0 2.3368,-1.2192 1.3716,-1.27 3.7084,-4.064 0.609599,-0.7112 1.371599,-0.7112 0.6604,0 1.016,0.6096 0.4064,0.6096 0.4064,1.6764 0,2.032 -0.9652,3.1496 -2.082799,2.5908 -4.419599,4.3688 -2.3368,1.778 -4.5212,1.778 -1.6764,0 -3.0988,-1.1176 -1.3716,-1.1684 -2.0828,-3.1496 -2.6416,4.2672 -6.6548,4.2672 z m 1.8288,-5.1308 q 1.1176,0 2.1336,-1.3208 1.016,-1.3208 1.4732,-3.5052 l 1.8796,-9.347199 q -2.1336,0.0508 -3.9624,1.6256 -1.778,1.523999 -2.8448,4.063999 -1.0668,2.54 -1.0668,5.3848 0,1.5748 0.6096,2.3368 0.6604,0.762 1.778,0.762 z M 75.561967,56.1564 q 0.6604,0 1.016,0.6604 0.3556,0.6604 0.3556,1.6764 0,1.27 -0.3556,1.9812 -0.3556,0.6604 -1.1176,0.9144 -3.048,1.0668 -6.7056,1.2192 -1.016,4.2164 -3.8608,6.8072 -2.794,2.5908 -6.1976,2.5908 -5.1308,0 -7.4676,-3.9116 -2.3368,-3.9116 -2.3368,-11.3284 0,-6.553199 1.6256,-14.223999 1.6256,-7.7216 4.7244,-13.1064 3.1496,-5.4356 7.4676,-5.4356 2.3368,0 3.7592,2.032 1.4224,1.9812 1.4224,5.1816 0,4.1656 -1.5748,8.2804 -1.5748,4.1148 -5.2324,8.636 3.4036,0.254 5.5372,2.8448 2.1336,2.54 2.54,6.299199 2.3876,-0.1524 5.6896,-1.016 0.3048,-0.1016 0.7112,-0.1016 z m -14.0208,-27.127199 q -1.016,0 -2.2352,3.048 -1.1684,2.9972 -2.1844,8.1788 -1.016,5.1816 -1.524,11.3284 3.3528,-6.1468 5.334,-10.8204 2.032,-4.7244 2.032,-8.382 0,-1.6256 -0.4064,-2.4892 -0.3556,-0.8636 -1.016,-0.8636 z m -2.6416,37.591999 q 1.5748,0 2.794,-1.3208 1.2192,-1.3208 1.6256,-3.81 -1.5748,-1.0668 -2.4384,-2.794 -0.8128,-1.7272 -0.8128,-3.657599 0,-0.7112 0.2032,-1.9304 h -0.1524 q -2.0828,0 -3.5052,2.0828 -1.3716,2.031999 -1.3716,5.486399 0,2.8956 1.0668,4.4196 1.1176,1.524 2.5908,1.524 z M 98.472744,56.1564 q 0.6604,0 1.016,0.6604 0.3556,0.6604 0.3556,1.6764 0,2.4384 -1.4732,2.8956 -3.048,1.0668 -6.7056,1.2192 -0.9652,4.2672 -3.81,6.858 -2.8448,2.54 -6.4516,2.54 -3.048,0 -5.2324,-1.4732 -2.133599,-1.4732 -3.251199,-3.9116 -1.1176,-2.4384 -1.1176,-5.2832 0,-3.8608 1.4732,-6.857999 1.473199,-3.048 4.063999,-4.7244 2.5908,-1.7272 5.7404,-1.7272 3.8608,0 6.1976,2.6924 2.3876,2.6416 2.794,6.553199 2.3876,-0.1524 5.6896,-1.016 0.4064,-0.1016 0.7112,-0.1016 z m -16.6624,10.4648 q 1.6256,0 2.794,-1.3208 1.2192,-1.3208 1.6256,-3.81 -1.5748,-1.0668 -2.4384,-2.794 -0.8128,-1.7272 -0.8128,-3.657599 0,-0.8128 0.1524,-1.6256 h -0.254 q -2.032,0 -3.4036,1.981199 -1.3208,1.9304 -1.3208,5.4864 0,2.794 1.0668,4.2672 1.1176,1.4732 2.5908,1.4732 z m 18.846816,5.3848 q -2.286003,0 -3.759203,-2.0828 -1.4224,-2.1336 -1.4224,-5.2832 0,-3.81 0.508,-6.9596 0.508,-3.200399 1.6764,-6.756399 0.508,-1.524 1.4224,-2.1844 0.9144,-0.6604 2.895603,-0.6604 1.1176,0 1.524,0.3556 0.4572,0.3556 0.4572,1.0668 0,0.4064 -0.5588,2.7432 -0.508,1.8796 -0.8128,3.403599 -1.016,5.334 -1.016,7.112 0,1.0668 0.254,1.524 0.254,0.4064 0.8128,0.4064 0.762,0 1.8796,-1.524 1.1684,-1.524 2.4384,-4.6228 1.3208,-3.0988 2.54,-7.619999 0.4064,-1.524 1.2192,-2.1844 0.8636,-0.6604 2.54,-0.6604 1.1684,0 1.6256,0.3048 0.4572,0.254 0.4572,1.016 0,1.27 -1.27,6.959599 -1.4224,6.5024 -1.4224,8.0264 0,0.9652 0.4064,1.524 0.4064,0.508 1.0668,0.508 1.016,0 2.3876,-1.2192 1.4224,-1.27 3.7592,-4.064 0.6096,-0.7112 1.3716,-0.7112 0.6604,0 1.016,0.6096 0.4064,0.6096 0.4064,1.6764 0,2.032 -0.9652,3.1496 -2.1844,2.6924 -4.7244,4.4196 -2.4892,1.7272 -5.6896,1.7272 -2.4384,0 -3.6068,-1.8796 -1.1176,-1.8796 -1.1176,-5.2832 -0.8636,3.4544 -2.5908,5.334 -1.7272,1.8288 -3.7084,1.8288 z m 26.66999,-19.100799 q -0.1016,2.539999 -0.1016,3.962399 0,3.6576 0.3556,5.7404 0.4064,2.032 1.27,2.9464 0.9144,0.8636 2.4892,0.8636 0.8128,0 1.9304,-0.508 1.1176,-0.508 2.032,-1.3208 0.5588,-0.508 1.1176,-0.508 0.6096,0 0.9652,0.7112 0.4064,0.6604 0.4064,1.6256 0,0.9652 -0.4064,1.8796 -0.3556,0.9144 -1.1176,1.524 -2.6416,2.1844 -5.9944,2.1844 -4.826,0 -7.0612,-4.0132 -2.2352,-4.064 -2.2352,-10.5664 0,-2.235199 0.1524,-4.521199 h -1.9812 q -1.524,0 -2.0828,-0.5588 -0.508,-0.5588 -0.508,-1.778 0,-2.8448 2.286,-2.8448 h 2.8956 q 0.8636,-5.588 2.6416,-10.2108 1.778,-4.6228 4.2672,-7.366 2.54,-2.7432 5.4356,-2.7432 2.1336,0 3.3528,1.8796 1.2192,1.8796 1.2192,4.7244 0,7.874 -6.604,13.716 h 5.6896 q 0.8128,0 1.1684,0.3556 0.3556,0.3556 0.3556,1.3208 0,3.5052 -5.7404,3.5052 z m 5.3848,-20.6248 q -0.762,0 -1.7272,1.9304 -0.9144,1.8796 -1.778,5.2832 -0.8128,3.3528 -1.3716,7.4676 2.9972,-2.5908 4.4704,-5.7912 1.524,-3.2512 1.524,-5.8928 0,-2.9972 -1.1176,-2.9972 z M 156.99433,72.006 q -1.9304,0 -2.7432,-2.032 -0.762,-2.032 -0.762,-6.5024 0,-6.604 1.8796,-12.547599 0.4572,-1.4732 1.4732,-2.1336 1.0668,-0.7112 2.9464,-0.7112 1.016,0 1.4224,0.254 0.4064,0.254 0.4064,0.9652 0,0.8128 -0.762,3.6576 -0.508,2.032 -0.8128,3.555999 -0.3048,1.4732 -0.508,3.7084 1.3716,-3.9624 3.2512,-6.705599 1.9304,-2.7432 3.9116,-4.064 2.032,-1.3716 3.81,-1.3716 1.778,0 2.4892,0.8128 0.762,0.8128 0.762,2.4892 0,1.6256 -0.9652,5.892799 -0.4064,1.8288 -0.5588,2.7432 2.54,-6.248399 5.6388,-9.093199 3.0988,-2.8448 5.7912,-2.8448 3.302,0 3.302,3.302 0,1.9812 -1.1176,7.162799 -0.9652,4.4196 -0.9652,5.842 0,2.032 1.4732,2.032 1.016,0 2.3876,-1.2192 1.4224,-1.27 3.7592,-4.064 0.6096,-0.7112 1.3716,-0.7112 0.6604,0 1.016,0.6096 0.4064,0.6096 0.4064,1.6764 0,2.032 -0.9652,3.1496 -2.1844,2.6924 -4.7244,4.4196 -2.4892,1.7272 -5.6896,1.7272 -2.5908,0 -3.9116,-1.4732 -1.3208,-1.524 -1.3208,-4.3688 0,-1.4224 0.7112,-5.08 0.6604,-3.2004 0.6604,-4.4196 0,-0.8128 -0.5588,-0.8128 -0.6604,0 -1.8796,1.7272 -1.2192,1.6764 -2.4384,4.4704 -1.2192,2.794 -1.9812,5.8928 -0.5588,2.4384 -1.3208,3.2512 -0.7112,0.8128 -2.3368,0.8128 -1.6764,0 -2.54,-1.5748 -0.8128,-1.6256 -0.8128,-3.9116 0,-1.9304 0.508,-5.588 0.4064,-3.2512 0.4064,-4.2672 0,-0.8128 -0.5588,-0.8128 -0.762,0 -1.9304,1.8288 -1.1684,1.8288 -2.286,4.6736 -1.0668,2.8448 -1.7272,5.588 -0.5588,2.3876 -1.3208,3.2512 -0.7112,0.8128 -2.286,0.8128 z M 209.3691,61.9476 q 0.6604,0 1.016,0.6096 0.4064,0.6096 0.4064,1.6764 0,1.8288 -0.8636,3.1496 -1.4224,2.1844 -3.7592,3.4036 -2.286,1.2192 -5.4864,1.2192 -4.8768,0 -7.5692,-2.8956 -2.6924,-2.9464 -2.6924,-7.9248 0,-3.5052 1.4732,-6.502399 1.4732,-3.048 4.064,-4.826 2.6416,-1.778 5.9436,-1.778 2.9464,0 4.7244,1.778 1.778,1.7272 1.778,4.7244 0,3.505199 -2.54,6.045199 -2.4892,2.4892 -8.5344,3.9624 1.2192,2.3368 4.1148,2.3368 2.0828,0 3.4036,-0.9652 1.3716,-0.9652 3.1496,-3.2512 0.6096,-0.762 1.3716,-0.762 z m -8.3312,-8.889999 q -1.8796,0 -3.2004,2.1844 -1.27,2.184399 -1.27,5.283199 v 0.1016 q 2.9972,-0.7112 4.7244,-2.1336 1.7272,-1.4224 1.7272,-3.301999 0,-0.9652 -0.5588,-1.524 -0.508,-0.6096 -1.4224,-0.6096 z"
     id="text2"
     style="-inkscape-font-specification:Pacifico;fill:#fffdfd;stroke:#000000;stroke-width:0;stroke-linecap:round;stroke-linejoin:round;stroke-miterlimit:4.1;filter:url(#filter4)"
     aria-label="about me" />
</svg>
