<?xml version="1.0" encoding="UTF-8" standalone="no"?>
<!-- Created with Inkscape (http://www.inkscape.org/) -->

<svg
   width="189.02684mm"
   height="41.656002mm"
   viewBox="0 0 189.02684 41.656002"
   version="1.1"
   id="svg1"
   xmlns="http://www.w3.org/2000/svg"
   xmlns:svg="http://www.w3.org/2000/svg">
  <defs
     id="defs1" />
  <g
     id="layer1"
     transform="translate(-11.371631,-63.740473)">
    <path
       d="m 11.371632,104.88847 7.9756,-41.147996 h 9.2964 l 7.9248,41.147996 h -7.7724 l -1.4732,-9.042396 h -6.5024 l -1.5748,9.042396 z m 10.2108,-14.173196 h 4.9276 l -2.4892,-16.6116 z m 32.410404,14.681196 q -1.625599,0 -3.149599,-0.762 -1.524,-0.762 -2.8956,-1.9812 v 2.2352 h -7.6708 V 63.740474 h 7.6708 v 13.97 q 1.4224,-1.27 2.9972,-1.9812 1.5748,-0.7112 3.251199,-0.7112 1.778,0 2.9972,0.8128 1.2192,0.762 1.9812,2.0828 0.762,1.3208 1.0668,2.9464 0.3048,1.6256 0.3048,3.302 v 11.4808 q 0,2.8448 -0.7112,5.029196 -0.7112,2.1844 -2.1844,3.4544 -1.4224,1.27 -3.6576,1.27 z m -3.403599,-5.1308 q 0.9144,0 1.4224,-0.558796 0.508,-0.6096 0.6604,-1.5748 0.2032,-0.9652 0.2032,-2.1336 v -12.2936 q 0,-1.0668 -0.2032,-1.9304 -0.2032,-0.8636 -0.7112,-1.3716 -0.4572,-0.5588 -1.3716,-0.5588 -0.7112,0 -1.3716,0.3556 -0.6604,0.3048 -1.27,0.762 v 18.3896 q 0.6096,0.4064 1.27,0.660396 0.6604,0.254 1.3716,0.254 z m 24.028401,5.1308 q -3.1496,0 -5.3848,-1.1176 -2.2352,-1.1684 -3.4036,-3.3528 -1.1176,-2.184396 -1.1176,-5.435596 v -10.5664 q 0,-3.2512 1.1176,-5.4356 1.1684,-2.1844 3.4036,-3.302 2.2352,-1.1684 5.3848,-1.1684 3.1496,0 5.3848,1.1684 2.2352,1.1176 3.4036,3.302 1.1684,2.1844 1.1684,5.4356 v 10.5664 q 0,3.2512 -1.1684,5.435596 -1.1684,2.1844 -3.4036,3.3528 -2.2352,1.1176 -5.3848,1.1176 z m 0.0508,-5.1816 q 0.9652,0 1.4732,-0.507996 0.508,-0.5588 0.6604,-1.4732 0.1524,-0.9652 0.1524,-2.1844 v -11.6332 q 0,-1.27 -0.1524,-2.1844 -0.1524,-0.9144 -0.6604,-1.4732 -0.508,-0.5588 -1.4732,-0.5588 -0.9652,0 -1.4732,0.5588 -0.508,0.5588 -0.7112,1.4732 -0.1524,0.9144 -0.1524,2.1844 v 11.6332 q 0,1.2192 0.1524,2.1844 0.2032,0.9144 0.7112,1.4732 0.508,0.507996 1.4732,0.507996 z m 19.55803,5.1816 q -1.778,0 -2.9972,-0.9144 -1.1684,-0.9144 -1.7272,-2.4384 -0.5588,-1.524 -0.5588,-3.352796 v -23.1648 h 7.6708 v 22.0472 q 0,1.2192 0.4064,1.8796 0.4064,0.609596 1.4732,0.609596 0.6096,0 1.27,-0.304796 0.711202,-0.3556 1.422402,-0.8128 v -23.4188 h 7.6708 v 29.362396 h -7.6708 v -2.7432 q -1.524002,1.4732 -3.302002,2.3876 -1.7272,0.8636 -3.6576,0.8636 z m 28.803592,-0.2032 q -3.0988,0 -4.826,-0.9144 -1.6764,-0.9652 -2.3368,-2.7432 -0.6604,-1.777996 -0.6604,-4.317996 v -16.6624 h -2.8956 v -5.0292 h 2.8956 v -8.89 h 7.7216 v 8.89 h 4.318 v 5.0292 h -4.318 v 15.9512 q 0,1.3716 0.7112,1.9812 0.7112,0.5588 1.9304,0.5588 0.6096,0 1.1684,-0.0508 0.5588,-0.1016 1.016,-0.1524 v 5.994396 q -0.762,0.1016 -2.0828,0.2032 -1.27,0.1524 -2.6416,0.1524 z m 21.18365,-0.3048 V 75.526074 h 7.4676 v 2.4384 q 1.5748,-1.6256 3.302,-2.286 1.778,-0.7112 3.6068,-0.7112 1.778,0 3.048,0.9144 1.3208,0.8636 1.9304,2.6416 1.7272,-1.9304 3.6068,-2.7432 1.87959,-0.8128 3.86079,-0.8128 1.6256,0 2.8956,0.8128 1.27,0.8128 1.9812,2.3876 0.7112,1.5748 0.7112,3.8608 v 22.859996 h -7.4676 V 82.790474 q 0,-1.4224 -0.50799,-1.9812 -0.4572,-0.6096 -1.4224,-0.6096 -0.6096,0 -1.4732,0.3556 -0.8636,0.3556 -1.6256,1.016 0,0.1016 0,0.2032 0,0.1016 0,0.254 v 22.859996 h -7.366 V 82.790474 q 0,-1.4224 -0.508,-1.9812 -0.508,-0.6096 -1.4732,-0.6096 -0.6604,0 -1.524,0.3556 -0.8128,0.3556 -1.5748,1.016 v 23.317196 z m 46.68517,0.508 q -3.2512,0 -5.4356,-1.1684 -2.1844,-1.2192 -3.302,-3.5052 -1.1176,-2.336796 -1.1176,-5.587996 v -9.8552 q 0,-3.3528 1.1176,-5.588 1.1176,-2.286 3.3528,-3.4544 2.2352,-1.2192 5.3848,-1.2192 3.3528,0 5.4356,1.2192 2.0828,1.2192 3.048,3.556 1.016,2.3368 1.016,5.6896 v 5.1308 h -11.7856 v 5.6896 q 0,1.27 0.254,2.0828 0.3048,0.8128 0.8128,1.1684 0.508,0.3048 1.27,0.3048 0.7112,0 1.2192,-0.3048 0.5588,-0.3556 0.8128,-1.0668 0.254,-0.7112 0.254,-1.8796 v -2.794 h 7.112 v 2.4384 q 0,4.470396 -2.4384,6.807196 -2.4384,2.3368 -7.0104,2.3368 z m -2.286,-18.440396 h 4.6228 v -2.8956 q 0,-1.27 -0.254,-2.032 -0.254,-0.8128 -0.8128,-1.1176 -0.508,-0.3556 -1.3208,-0.3556 -0.762,0 -1.27,0.3556 -0.4572,0.3556 -0.7112,1.27 -0.254,0.8636 -0.254,2.4892 z"
       id="text1"
       style="font-weight:600;font-size:50.8px;font-family:Oswald;-inkscape-font-specification:'Oswald Semi-Bold';fill:#ff9900;stroke:#000000;stroke-width:0;stroke-linecap:round;stroke-linejoin:round;stroke-miterlimit:4.1"
       aria-label="About me" />
  </g>
</svg>
