<?xml version="1.0" encoding="UTF-8" standalone="no"?>
<!-- Generator: Adobe Illustrator 16.0.0, SVG Export Plug-In . SVG Version: 6.00 Build 0)  -->

<svg
   version="1.1"
   id="Layer_12"
   x="0px"
   y="0px"
   width="500.38055"
   height="497.68884"
   viewBox="0 0 500.38055 497.68884"
   enable-background="new 0 0 512 512"
   xml:space="preserve"
   xmlns="http://www.w3.org/2000/svg"
   xmlns:svg="http://www.w3.org/2000/svg"><defs
   id="defs1" />
<ellipse
   style="fill:#c6acfd;fill-opacity:1;stroke:#b8ffff;stroke-width:0;stroke-linecap:round;stroke-linejoin:round;stroke-miterlimit:4.1;stroke-dasharray:none"
   id="path2"
   cx="246.60127"
   cy="243.01233"
   rx="253.77925"
   ry="254.67651" /><path
   fill-rule="evenodd"
   clip-rule="evenodd"
   fill="#171515"
   d="m 196.96149,329.54033 c 0,-7.06272 5.61307,-12.77743 12.55019,-12.77743 6.93711,0 12.55018,5.71471 12.55018,12.77743 0,7.06273 -5.61307,12.77744 -12.55018,12.77744 -6.93712,0 -12.55019,-5.71471 -12.55019,-12.77744 z m 123.40598,100.74689 c -3.3462,0.97348 -6.8022,1.67225 -10.45431,1.67225 -20.79879,0 -37.65055,-17.1569 -37.65055,-38.33231 v -46.46834 c 0,-16.04686 10.11701,-29.6724 24.15675,-34.68914 26.95702,-9.22052 51.14436,-32.37962 51.14436,-59.59396 v -25.55807 c 0,-12.10981 -4.85378,-23.3867 -12.55018,-33.03526 v -28.85545 c 0,-14.10948 -11.2387,-18.94175 -25.10038,-10.77776 l -19.23002,11.32081 c -6.15822,-1.62513 -12.3784,-2.53952 -18.42053,-2.53952 h -50.20075 c -6.03899,0 -12.26231,0.91439 -18.42053,2.53952 L 184.4113,154.64918 c -13.85854,-8.16399 -25.10037,-3.33172 -25.10037,10.77776 v 28.85545 c -7.6964,9.64856 -12.55018,20.92545 -12.55018,33.03526 v 25.55807 c 0,18.59196 11.36419,35.28808 27.12252,46.96666 l -0.0157,0.0248 c 3.27246,2.28317 5.44756,6.13956 5.44756,10.50625 0,7.04995 -5.62875,12.77744 -12.55018,12.77744 -3.54543,0 -6.72533,-1.51014 -9.00476,-3.91788 -21.19334,-16.34554 -36.09982,-39.979 -36.09982,-66.35722 V 227.3177 c 0,-14.79228 4.71573,-28.73086 12.55019,-41.02755 v -38.03922 c 0,-28.21897 22.46875,-37.8835 50.20073,-21.55873 l 21.54005,12.68719 c 5.37148,-0.92956 10.75472,-1.50374 16.11051,-1.50374 h 50.20075 c 5.35579,0 10.73668,0.57418 16.11051,1.50374 l 21.54005,-12.68724 c 27.73513,-16.32398 50.20075,-6.66024 50.20075,21.55873 v 38.03922 c 7.83131,12.29669 12.55018,26.23527 12.55018,41.02755 v 25.55807 c 0,38.02006 -30.78717,70.3885 -67.08937,83.34002 -0.0431,0.0375 -0.0855,0.13736 -0.14746,0.15014 -4.71887,1.84634 -8.06428,6.48854 -8.06428,11.94131 v 45.31997 c 0,7.06273 5.61307,12.77744 12.55018,12.77744 1.04794,0 2.0096,-0.29947 2.97832,-0.54943 64.45462,-26.47804 109.97336,-90.63994 109.97336,-165.76008 0,-98.79753 -78.65908,-178.884104 -175.70261,-178.884104 -97.04039,0 -175.702598,80.086574 -175.702598,178.884104 0,77.79062 48.831208,143.79886 116.968518,168.41858 0.34905,0.0375 0.6683,0.18687 1.03225,0.18687 4.13921,0 7.50031,-3.43154 7.50031,-7.63611 0,-4.21736 -3.3611,-7.63612 -7.50031,-7.63612 -0.0886,0 -0.0886,-0.0751 -0.14982,-0.1126 -41.69799,-1.13559 -41.74427,-50.99714 -55.10001,-50.99714 -6.93712,0 -12.55019,-5.71471 -12.55019,-12.77744 0,-7.06273 5.61307,-12.77743 12.55019,-12.77743 h 6.26568 c 25.11605,0 21.52748,51.10974 56.48524,51.10974 13.85854,0 25.10037,11.44219 25.10037,25.55487 v 22.36051 c 0,12.34061 -9.82601,22.36052 -21.96596,22.36052 -1.32405,0 -2.57044,-0.27472 -3.8333,-0.52388 C 110.05381,414.67719 46.35926,335.06817 46.35926,240.09509 c 0,-112.90702 89.90405,-204.438976 200.80297,-204.438976 110.89894,0 200.80298,91.531956 200.80298,204.438976 0,86.57511 -52.93982,160.39515 -127.59774,190.19213 z"
   id="path1"
   style="stroke-width:0.791456" />
</svg>
