<?xml version="1.0" encoding="UTF-8" standalone="no"?>
<!-- Created with Inkscape (http://www.inkscape.org/) -->

<svg
   width="206.97508mm"
   height="198.90776mm"
   viewBox="0 0 206.97508 198.90776"
   version="1.1"
   id="svg1"
   xml:space="preserve"
   xmlns="http://www.w3.org/2000/svg"
   xmlns:svg="http://www.w3.org/2000/svg"><defs
     id="defs1" /><g
     id="layer1"
     transform="translate(-1.51781,-80.889889)"><ellipse
       style="fill:#b8ffff;fill-opacity:1;stroke:#b8ffff;stroke-width:5.88096;stroke-linecap:round;stroke-linejoin:round;stroke-miterlimit:4.1;stroke-dasharray:none;stroke-opacity:1"
       id="path2"
       cx="105.00535"
       cy="180.34377"
       rx="100.54706"
       ry="96.513397" /><path
       fill-rule="evenodd"
       clip-rule="evenodd"
       fill="#469ec8"
       d="m 158.56372,235.51347 h -19.74384 c -4.78224,0 -8.76799,-3.43176 -9.67829,-7.99197 -0.0674,0 -0.12908,0.01 -0.19671,0.01 v -36.11698 c 0,-4.3008 -3.53652,-7.78145 -7.89818,-7.78145 -4.36191,0 -7.89843,3.48065 -7.89843,7.78145 v 34.01823 0.10727 c 0,2.434 -0.90042,4.6263 -2.32953,6.36264 -0.78491,1.20054 -2.12493,1.99175 -3.65426,1.99175 -2.42185,0 -4.38313,-1.98202 -4.38313,-4.42975 0,-1.29408 0.55734,-2.44748 1.4385,-3.25815 0.63829,-0.71139 1.03173,-1.63307 1.03173,-2.66224 v -5.70588 -8.21621 -18.57982 c 0,-8.50058 7.07106,-15.39352 15.79487,-15.39352 8.72356,0 15.79858,6.89294 15.79858,15.39352 v 26.79603 c 0,0.28636 -0.0269,0.53405 -0.0444,0.79695 0.0135,-0.004 0.0309,-0.004 0.0444,-0.01 v 4.91864 c 0,2.20229 1.76628,3.98726 3.94921,3.98726 h 15.79488 c 2.18293,0 3.94921,-1.78497 3.94921,-3.98726 v -35.91996 c 0,-0.30006 -0.0348,-0.58667 -0.0965,-0.86754 -1.01422,-17.33239 -14.70885,-31.0654 -31.49695,-31.0654 -6.96888,0 -13.38611,2.38911 -18.6003,6.39981 -0.0192,-0.01 -0.0405,-0.006 -0.081,0.0255 -0.53017,0.43077 -1.19932,0.68594 -1.92819,0.68594 -1.70655,0 -3.08335,-1.39734 -3.08335,-3.11996 0,-0.21426 -0.0126,-0.32551 -0.0348,-0.35669 -0.18216,-2.03266 -1.85613,-3.63454 -3.91441,-3.63454 H 89.453486 c -4.36092,0 -7.899166,3.57592 -7.899166,7.98422 v 59.86866 c 0,0.35869 0.06269,0.70367 0.150315,1.03318 -0.09254,0.28635 -0.150315,0.60414 -0.150315,0.96258 0,5.50906 -4.418675,9.97374 -9.874019,9.97374 H 70.95809 51.935716 c -5.45016,0 -9.873773,-4.46468 -9.873773,-9.97374 v -67.85315 c 0,-5.50907 4.423613,-9.97374 9.873773,-9.97374 h 9.874021 c 6.539894,0 11.844679,-5.36116 11.844679,-11.97549 0,-6.61407 -5.304785,-11.97522 -11.844679,-11.97522 -6.543847,0 -11.84838,5.36115 -11.84838,11.97522 0,2.20603 -1.766285,3.991 -3.9502,3.991 -2.177992,0 -3.949214,-1.78497 -3.949214,-3.991 0,-11.02237 8.842289,-19.95372 19.747794,-19.95372 10.906496,0 19.744088,8.93135 19.744088,19.95372 0,1.01148 -0.0975,1.99551 -0.242876,2.96806 -0.03181,0.18707 -0.04907,0.37989 -0.08489,0.56697 -0.172528,0.97056 -0.406766,1.9254 -0.717277,2.84133 -0.01259,0.0449 -0.0348,0.0858 -0.04814,0.13046 -0.681734,1.98203 -1.651505,3.81764 -2.877988,5.46442 -3.600199,4.83684 -9.316685,7.98224 -15.772662,7.98224 h -7.89966 c -2.182927,0 -3.949212,1.79096 -3.949212,3.99099 v 63.86166 c 0,2.20228 1.766285,3.98725 3.949212,3.98725 h 19.943525 c -0.128346,-0.64504 -0.199684,-1.30755 -0.199684,-1.9915 v -61.86393 c 0,-8.81635 7.076007,-15.96247 15.798584,-15.96247 h 13.823973 c 2.43937,0 4.65686,0.90819 6.37698,2.39883 0.0213,0.0137 0.0425,-0.01 0.0657,0.008 0.69037,0.60015 1.58512,0.95884 2.56477,0.95884 0.54005,0 1.05295,-0.10726 1.51748,-0.30606 0.14069,-0.0623 0.2256,-0.0526 0.30656,-0.0429 4.58553,-1.89798 9.5719,-3.0167 14.8362,-3.0167 20.47124,0 37.3013,15.74223 39.29319,35.89675 0.13304,0.64903 0.1987,1.329 0.1987,2.01895 v 39.91145 c 4.9e-4,5.50906 -4.4172,9.97374 -9.87255,9.97374 z m -65.160521,-7.98224 c 2.177998,0 3.94922,1.78897 3.94922,3.991 0,2.20627 -1.77098,3.99124 -3.94922,3.99124 -2.182922,0 -3.950198,-1.78497 -3.950198,-3.99124 0,-2.20203 1.767518,-3.991 3.950198,-3.991 z"
       id="path1"
       style="fill:#0000ff;fill-opacity:1;stroke:#000000;stroke-width:0.248128;stroke-opacity:1" /></g></svg>
