<?xml version="1.0" encoding="UTF-8" standalone="no"?>
<!-- Created with Inkscape (http://www.inkscape.org/) -->

<svg
   width="89.575363mm"
   height="90.363594mm"
   viewBox="0 0 89.575363 90.363594"
   version="1.1"
   id="svg1"
   xmlns="http://www.w3.org/2000/svg"
   xmlns:svg="http://www.w3.org/2000/svg">
  <defs
     id="defs1" />
  <g
     id="layer1"
     transform="matrix(0.86656857,0,0,0.87633652,-49.117332,-146.34107)">
    <rect
       style="fill:#94bde6;fill-opacity:1;stroke:#b8ffff;stroke-width:0;stroke-linecap:round;stroke-linejoin:round;stroke-miterlimit:4.1"
       id="rect8-7"
       width="6.6288195"
       height="29.055561"
       x="228.01988"
       y="81.998055"
       ry="2.3039649"
       transform="matrix(0.6965578,0.71750068,-0.71757985,0.69647625,0,0)" />
    <rect
       style="fill:#94bde6;fill-opacity:1;stroke:#b8ffff;stroke-width:0;stroke-linecap:round;stroke-linejoin:round;stroke-miterlimit:4.1"
       id="rect8-4"
       width="6.6222825"
       height="29.08424"
       x="96.862183"
       y="-260.2963"
       ry="2.3062391"
       transform="matrix(-0.63497861,0.77252972,-0.77245826,-0.63506553,0,0)" />
    <rect
       style="fill:#94bde6;fill-opacity:1;stroke:#b8ffff;stroke-width:0;stroke-linecap:round;stroke-linejoin:round;stroke-miterlimit:4.1"
       id="rect8"
       width="6.6245351"
       height="29.074352"
       x="105.07249"
       y="180.70261"
       ry="2.305455" />
    <path
       id="rect5"
       style="fill:#5a96d3;fill-opacity:1;stroke:#b8ffff;stroke-width:0;stroke-linecap:round;stroke-linejoin:round;stroke-miterlimit:4.1"
       d="m 108.02545,166.99187 c -5.7349,0 -10.351825,4.61693 -10.351825,10.35183 v 9.87071 c 0,0.5093 0.03815,1.00889 0.10852,1.4981 a 31.749001,31.749001 0 0 1 9.114685,-1.86138 31.749001,31.749001 0 0 1 11.76931,1.6893 c 0.0551,-0.43446 0.0868,-0.8761 0.0868,-1.32602 v -9.87071 c 0,-5.7349 -4.61693,-10.35183 -10.35182,-10.35183 z" />
    <path
       id="rect5-6"
       style="fill:#5a96d3;fill-opacity:1;stroke:#b8ffff;stroke-width:0;stroke-linecap:round;stroke-linejoin:round;stroke-miterlimit:4.1"
       d="m 118.98809,248.37244 a 31.749001,31.749001 0 0 1 -10.00715,1.86862 31.749001,31.749001 0 0 1 -10.860831,-1.79989 c -0.06528,0.47168 -0.101286,0.95312 -0.101286,1.44332 v 9.87071 c 0,5.7349 4.616927,10.35183 10.351827,10.35183 h 0.37568 c 5.7349,0 10.35183,-4.61693 10.35183,-10.35183 v -9.87071 c 0,-0.51393 -0.0384,-1.0186 -0.11007,-1.51205 z" />
    <path
       id="rect5-61"
       style="fill:#5a96d3;fill-opacity:1;stroke:#b8ffff;stroke-width:0;stroke-linecap:round;stroke-linejoin:round;stroke-miterlimit:4.1"
       d="m -208.09324,139.82557 c 0,-0.4622 -0.0328,-0.91634 -0.0909,-1.36219 a 31.749001,31.749001 0 0 1 -8.08375,1.67587 l -2.19004,0.076 a 31.749001,31.749001 0 0 1 -10.60349,-1.90479 c -0.0719,0.49444 -0.11059,1.00015 -0.11059,1.51515 v 9.87072 c 0,5.73489 4.61642,10.35182 10.35131,10.35182 h 0.37569 c 5.73489,0 10.35182,-4.61693 10.35182,-10.35182 z"
       transform="rotate(-90)" />
    <path
       id="rect5-7"
       style="fill:#5a96d3;fill-opacity:1;stroke:#b8ffff;stroke-width:0;stroke-linecap:round;stroke-linejoin:round;stroke-miterlimit:4.1"
       d="m -206.89383,67.032084 c 0,-5.734893 -4.61693,-10.351823 -10.35182,-10.351823 h -0.37569 c -5.73489,0 -10.35182,4.61693 -10.35182,10.351823 v 9.870199 c 0,0.456322 0.0322,0.904734 0.0889,1.345137 a 31.749001,31.749001 0 0 1 8.39897,-1.461926 31.749001,31.749001 0 0 1 12.39924,2.110465 c 0.12491,-0.644994 0.19224,-1.311108 0.19224,-1.993676 z"
       transform="rotate(-90)" />
    <path
       id="path5"
       style="fill:#5a96d3;fill-opacity:1;stroke:#b8ffff;stroke-width:0;stroke-linecap:round;stroke-linejoin:round;stroke-miterlimit:4.1"
       d="m 137.81278,230.51099 a 31.749001,31.749001 0 0 1 -13.87564,15.6838 c 0.33455,0.37126 0.69868,0.72414 1.09502,1.05317 l 7.59489,6.30504 c 4.41257,3.66309 10.91379,3.05968 14.57688,-1.35289 l 0.2403,-0.28939 c 3.66309,-4.41256 3.05968,-10.9138 -1.35289,-14.57689 l -7.59488,-6.30504 c -0.22233,-0.18456 -0.45138,-0.35484 -0.68368,-0.5178 z" />
    <path
       id="path5-3"
       style="fill:#5a96d3;fill-opacity:1;stroke:#b8ffff;stroke-width:0;stroke-linecap:round;stroke-linejoin:round;stroke-miterlimit:4.1"
       d="m 79.291801,230.96833 c -1.253523,0.62448 -2.402419,1.51301 -3.357418,2.6634 l -6.305041,7.59489 c -3.6631,4.41257 -3.059681,10.91431 1.352889,14.5774 l 0.289388,0.23978 c 4.41256,3.66309 10.913798,3.05968 14.576888,-1.35289 l 6.304524,-7.59488 c 0.250803,-0.30212 0.479966,-0.61471 0.690914,-0.93483 A 31.749001,31.749001 0 0 1 79.291801,230.96833 Z" />
    <path
       id="path5-2"
       style="fill:#5a96d3;fill-opacity:1;stroke:#b8ffff;stroke-width:0;stroke-linecap:round;stroke-linejoin:round;stroke-miterlimit:4.1"
       d="m 136.7808,177.42069 c -2.97968,-0.01 -5.93799,1.26706 -7.99848,3.74913 l -6.30504,7.59489 c -0.26498,0.31919 -0.50452,0.65041 -0.72502,0.9896 a 31.749001,31.749001 0 0 1 14.904,14.35416 c 0.74289,-0.52079 1.43145,-1.14618 2.04018,-1.87947 l 6.30453,-7.59489 c 3.66309,-4.41256 3.05968,-10.91379 -1.35289,-14.57688 l -0.28887,-0.2403 c -1.9305,-1.6026 -4.26089,-2.3886 -6.57841,-2.39624 z" />
    <path
       id="path5-31"
       style="fill:#5a96d3;fill-opacity:1;stroke:#b8ffff;stroke-width:0;stroke-linecap:round;stroke-linejoin:round;stroke-miterlimit:4.1"
       d="m 79.015332,177.81395 c -2.979676,-0.01 -5.938507,1.26706 -7.998995,3.74913 l -0.239779,0.28887 c -3.66309,4.41256 -3.059681,10.91431 1.352889,14.5774 l 7.594886,6.30453 c 0.263598,0.21882 0.534896,0.42182 0.812353,0.6103 a 31.749001,31.749001 0 0 1 15.074015,-13.92835 c -0.605227,-1.0758 -1.413371,-2.06331 -2.422591,-2.90112 l -7.594368,-6.30452 c -1.9305,-1.6026 -4.260885,-2.3886 -6.57841,-2.39624 z" />
    <path
       id="path3"
       style="fill:#5a96d3;fill-opacity:1;stroke:#b8ffff;stroke-width:0;stroke-linecap:round;stroke-linejoin:round;stroke-miterlimit:4.1"
       d="m 108.51896,180.86441 a 37.734501,37.734501 0 0 0 -37.73465,37.73465 37.734501,37.734501 0 0 0 37.73465,37.73413 37.734501,37.734501 0 0 0 37.73413,-37.73413 37.734501,37.734501 0 0 0 -37.73413,-37.73465 z m -1.64073,5.93194 a 31.749001,31.749001 0 0 1 33.31631,29.51603 l 0.076,2.19005 a 31.749001,31.749001 0 0 1 -31.2012,31.74431 31.749001,31.749001 0 0 1 -32.278132,-30.64826 31.749001,31.749001 0 0 1 30.087052,-32.80213 z" />
    <path
       id="path7"
       style="fill:#5a96d3;fill-opacity:1;stroke:#b8ffff;stroke-width:0;stroke-linecap:round;stroke-linejoin:round;stroke-miterlimit:4.1"
       d="m 107.90078,204.77583 a 12.5,12.5 0 0 0 -11.84528,12.91445 12.5,12.5 0 0 0 12.70828,12.06697 12.5,12.5 0 0 0 12.284,-12.49795 l -0.0295,-0.86248 a 12.5,12.5 0 0 0 -13.11755,-11.62099 z m 0.26407,5.07565 a 7.5,7.5 0 0 1 7.87032,6.97271 l 0.0176,0.51728 a 7.5,7.5 0 0 1 -7.37061,7.49928 7.5,7.5 0 0 1 -7.62486,-7.24038 7.5,7.5 0 0 1 7.10758,-7.74889 z" />
  </g>
</svg>
