<?xml version="1.0" encoding="UTF-8" standalone="no"?>
<!-- Created with Inkscape (http://www.inkscape.org/) -->

<svg
   width="142.49832mm"
   height="63.707603mm"
   viewBox="0 0 142.49832 63.707603"
   version="1.1"
   id="svg1"
   xml:space="preserve"
   xmlns:xlink="http://www.w3.org/1999/xlink"
   xmlns="http://www.w3.org/2000/svg"
   xmlns:svg="http://www.w3.org/2000/svg"><defs
     id="defs1"><linearGradient
       id="linearGradient13"><stop
         style="stop-color:#e4836b;stop-opacity:1;"
         offset="0"
         id="stop12" /><stop
         style="stop-color:#d2d685;stop-opacity:1;"
         offset="0.42576531"
         id="stop19" /><stop
         style="stop-color:#a0e6a6;stop-opacity:1;"
         offset="0.5492745"
         id="stop20" /><stop
         style="stop-color:#8ee2de;stop-opacity:1;"
         offset="0.71662533"
         id="stop21" /></linearGradient><radialGradient
       xlink:href="#linearGradient13"
       id="radialGradient5"
       cx="102.63689"
       cy="110.80786"
       fx="102.63689"
       fy="110.80786"
       r="63.449158"
       gradientTransform="matrix(1.4606657,0.05863185,-0.07143961,1.7797397,-39.678273,-93.04598)"
       gradientUnits="userSpaceOnUse" /><filter
       style="color-interpolation-filters:sRGB"
       id="filter26"
       x="-0.037825561"
       y="-0.099776341"
       width="1.1229331"
       height="1.3242731"><feFlood
         result="flood"
         in="SourceGraphic"
         flood-opacity="0.498039"
         flood-color="rgb(0,0,0)"
         id="feFlood25" /><feGaussianBlur
         result="blur"
         in="SourceGraphic"
         stdDeviation="2.000000"
         id="feGaussianBlur25" /><feOffset
         result="offset"
         in="blur"
         dx="6.000000"
         dy="6.000000"
         id="feOffset25" /><feComposite
         result="comp1"
         operator="in"
         in="flood"
         in2="offset"
         id="feComposite25" /><feComposite
         result="comp2"
         operator="over"
         in="SourceGraphic"
         in2="comp1"
         id="feComposite26" /></filter></defs><g
     id="layer3"
     transform="translate(-34.339285,-78.152167)"><path
       d="m 89.431283,119.37576 q 0.6604,0 1.016,0.6096 0.4064,0.6096 0.4064,1.6764 0,1.9812 -0.9652,3.1496 -5.0292,6.1468 -10.7188,6.1468 -4.9276,0 -7.874,-3.81 -2.9464,-3.81 -2.9464,-10.922 0,-1.7272 0.1524,-3.4544 -3.3528,0.6096 -7.3152,0.9144 -2.6416,0.2032 -3.6068,0.254 -1.016,5.1816 -2.8448,12.7 -1.0668,4.4196 -4.064,4.4196 -3.2512,0 -3.2512,-2.9464 0,-0.6604 0.254,-1.8288 1.7272,-6.9596 2.7432,-11.7856 l -2.4384,0.1016 q -1.6764,0 -2.438399,-0.5588 -0.762,-0.6096 -0.762,-1.9304 0,-1.6764 0.9652,-2.4384 0.965199,-0.8128 3.200399,-0.9144 l 2.6924,-0.1016 q 1.3208,-7.1628 1.3208,-10.921997 0,-2.3876 -0.7112,-3.2512 -0.7112,-0.8636 -1.8796,-0.8636 -3.556,0 -8.026399,5.9436 -0.6604,0.863597 -1.4732,0.863597 -0.7112,0 -1.2192,-0.660397 -0.508,-0.6604 -0.508,-1.6764 0,-1.5748 1.27,-3.3528 2.2352,-3.0988 5.638799,-5.08 3.4036,-2.032 6.9088,-2.032 3.302,0 5.08,2.286 1.8288,2.2352 1.8288,7.0104 0,4.216397 -1.2192,11.429997 l 4.9784,-0.254 q 3.2004,-0.1524 5.4864,-0.508 0.9144,-5.588 2.794,-10.464797 1.8796,-4.8768 4.6736,-7.9248 2.794,-3.048 6.2484,-3.048 2.54,0 4.0132,2.032 1.4732,1.9812 1.4732,5.2324 0,12.598397 -12.8524,17.475197 -0.1524,2.032 -0.1524,4.2164 0,5.334 1.3208,7.5692 1.3208,2.2352 3.7084,2.2352 2.0828,0 3.81,-1.0668 1.7272,-1.1176 3.9116,-3.7592 0.6096,-0.7112 1.3716,-0.7112 z m -6.858,-28.803597 q -1.1176,0 -2.3876,2.032 -1.2192,2.032 -2.3368,5.5372 -1.1176,3.505197 -1.778,7.670797 4.064,-1.6764 5.9944,-4.7752 1.9304,-3.098797 1.9304,-7.975597 0,-1.1684 -0.4064,-1.8288 -0.4064,-0.6604 -1.016,-0.6604 z M 115.9996,119.37576 q 0.6604,0 1.016,0.6096 0.4064,0.6096 0.4064,1.6764 0,2.032 -0.9652,3.1496 -1.8796,2.286 -5.334,4.2164 -3.4036,1.9304 -7.3152,1.9304 -5.334,0 -8.2804,-2.8956 -2.9464,-2.8956 -2.9464,-7.9248 0,-3.5052 1.4732,-6.5024 1.4732,-3.048 4.064,-4.826 2.6416,-1.778 5.9436,-1.778 2.9464,0 4.7244,1.778 1.778,1.7272 1.778,4.7244 0,3.5052 -2.54,6.0452 -2.4892,2.4892 -8.4836,3.9624 1.27,2.3368 4.826,2.3368 2.286,0 5.1816,-1.5748 2.9464,-1.6256 5.08,-4.2164 0.6096,-0.7112 1.3716,-0.7112 z m -12.8016,-7.366 q -1.8796,0 -3.2004,2.1844 -1.27,2.1844 -1.27,5.2832 v 0.1016 q 2.9972,-0.7112 4.7244,-2.1336 1.7272,-1.4224 1.7272,-3.302 0,-0.9652 -0.5588,-1.524 -0.508,-0.6096 -1.4224,-0.6096 z m 29.36239,7.366 q 0.6604,0 1.016,0.6096 0.4064,0.6096 0.4064,1.6764 0,2.032 -0.9652,3.1496 -2.1844,2.6924 -4.7752,4.4196 -2.54,1.7272 -5.7912,1.7272 -4.4704,0 -6.6548,-4.064 -2.1336,-4.064 -2.1336,-10.5156 0,-6.1976 1.5748,-14.1224 1.6256,-7.924797 4.7244,-13.614397 3.1496,-5.6896 7.4676,-5.6896 2.4384,0 3.81,2.286 1.4224,2.2352 1.4224,6.4516 0,6.0452 -3.3528,14.020797 -3.3528,7.9756 -9.0932,15.7988 0.3556,2.0828 1.1684,2.9972 0.8128,0.8636 2.1336,0.8636 2.0828,0 3.6576,-1.1684 1.5748,-1.2192 4.0132,-4.1148 0.6096,-0.7112 1.3716,-0.7112 z m -6.2484,-31.394397 q -1.1684,0 -2.6416,4.2164 -1.4732,4.2164 -2.5908,10.464797 -1.1176,6.2484 -1.2192,11.9888 3.6068,-5.9436 5.7404,-11.8872 2.1336,-5.994397 2.1336,-10.921997 0,-3.8608 -1.4224,-3.8608 z m 22.8092,31.394397 q 0.6604,0 1.016,0.6096 0.4064,0.6096 0.4064,1.6764 0,2.032 -0.9652,3.1496 -2.1844,2.6924 -4.7752,4.4196 -2.54,1.7272 -5.7912,1.7272 -4.4704,0 -6.6548,-4.064 -2.1336,-4.064 -2.1336,-10.5156 0,-6.1976 1.5748,-14.1224 1.6256,-7.924797 4.7244,-13.614397 3.1496,-5.6896 7.4676,-5.6896 2.4384,0 3.81,2.286 1.4224,2.2352 1.4224,6.4516 0,6.0452 -3.3528,14.020797 -3.3528,7.9756 -9.0932,15.7988 0.3556,2.0828 1.1684,2.9972 0.8128,0.8636 2.1336,0.8636 2.0828,0 3.6576,-1.1684 1.5748,-1.2192 4.0132,-4.1148 0.6096,-0.7112 1.3716,-0.7112 z m -6.2484,-31.394397 q -1.1684,0 -2.6416,4.2164 -1.4732,4.2164 -2.5908,10.464797 -1.1176,6.2484 -1.2192,11.9888 3.6068,-5.9436 5.7404,-11.8872 2.1336,-5.994397 2.1336,-10.921997 0,-3.8608 -1.4224,-3.8608 z M 155.014,130.95816 q -2.9972,0 -5.1308,-1.4732 -2.0828,-1.524 -3.1496,-3.9624 -1.0668,-2.4384 -1.0668,-5.2324 0,-3.8608 1.4224,-6.858 1.4732,-3.048 3.9624,-4.7244 2.4892,-1.7272 5.588,-1.7272 2.9972,0 5.1308,1.524 2.1336,1.4732 3.2004,3.9116 1.0668,2.4384 1.0668,5.2324 0,3.8608 -1.4732,6.9088 -1.4732,2.9972 -4.0132,4.7244 -2.4892,1.6764 -5.5372,1.6764 z m 0.5588,-5.4864 q 1.7272,0 2.8956,-1.8796 1.2192,-1.8796 1.2192,-5.4864 0,-2.794 -1.016,-4.2164 -1.016,-1.4224 -2.4384,-1.4224 -1.8288,0 -3.048,1.8796 -1.1684,1.8288 -1.1684,5.4864 0,2.8956 1.016,4.2672 1.016,1.3716 2.54,1.3716 z"
       id="text4"
       style="font-size:50.8px;font-family:Pacifico;-inkscape-font-specification:Pacifico;fill:url(#radialGradient5);stroke-width:0;stroke-linecap:round;stroke-linejoin:round;stroke-miterlimit:4.1;filter:url(#filter26)"
       aria-label="Hello" /></g></svg>
