<?xml version="1.0" encoding="UTF-8" standalone="no"?>
<!-- Created with Inkscape (http://www.inkscape.org/) -->

<svg
   width="201.17879mm"
   height="46.857548mm"
   viewBox="0 0 201.17879 46.857548"
   version="1.1"
   id="svg1"
   xmlns="http://www.w3.org/2000/svg"
   xmlns:svg="http://www.w3.org/2000/svg">
  <defs
     id="defs1" />
  <g
     id="layer1"
     transform="translate(-5.6412592,-45.851319)">
    <path
       d="m 5.7114053,45.851318 v 0 q -0.070146,0 -0.070146,0 0,0 0,0.07015 V 50.5511 q 0,0.07015 0,0.07015 0,0 0.070146,0 h 4.6296367 q 0.07015,0 0.07015,0 0,0 0,-0.07015 v -4.629636 q 0,-0.07015 0,-0.07015 0,0 -0.07015,0 z m 28.0584017,0 v 0 q -0.07015,0 -0.07015,0 0,0 0,0.07015 V 50.5511 q 0,0.07015 0,0.07015 0,0 0.07015,0 h 4.629636 q 0.07015,0 0.07015,0 0,0 0,-0.07015 v -4.629636 q 0,-0.07015 0,-0.07015 0,0 -0.07015,0 z m -28.0584017,7.0146 v 0 q -0.070146,0 -0.070146,0 0,0 0,0.07015 V 57.5657 q 0,0.07015 0,0.07015 0,0 0.070146,0 h 4.6296367 q 0.07015,0 0.07015,0 0,0 0,-0.07015 v -4.629636 q 0,-0.07015 0,-0.07015 0,0 -0.07015,0 z m 28.0584017,0 v 0 q -0.07015,0 -0.07015,0 0,0 0,0.07015 V 57.5657 q 0,0.07015 0,0.07015 0,0 0.07015,0 h 4.629636 q 0.07015,0 0.07015,0 0,0 0,-0.07015 v -4.629636 q 0,-0.07015 0,-0.07015 0,0 -0.07015,0 z M 5.7114053,59.880519 v 0 q -0.070146,0 -0.070146,0 0,0 0,0.07015 v 4.629636 q 0,0.07015 0,0.07015 0,0 0.070146,0 h 4.6296367 q 0.07015,0 0.07015,0 0,0 0,-0.07015 v -4.629636 q 0,-0.07015 0,-0.07015 0,0 -0.07015,0 z m 28.0584017,0 v 0 q -0.07015,0 -0.07015,0 0,0 0,0.07015 v 4.629636 q 0,0.07015 0,0.07015 0,0 0.07015,0 h 4.629636 q 0.07015,0 0.07015,0 0,0 0,-0.07015 v -4.629636 q 0,-0.07015 0,-0.07015 0,0 -0.07015,0 z m -28.0584017,7.0146 v 0 q -0.070146,0 -0.070146,0 0,0 0,0.07015 v 4.629636 q 0,0.07015 0,0.07015 0,0 0.070146,0 h 4.6296367 q 0.07015,0 0.07015,0 0,0 0,-0.07015 v -4.629636 q 0,-0.07015 0,-0.07015 0,0 -0.07015,0 z m 7.0146007,0 v 0 q -0.07015,0 -0.07015,0 0,0 0,0.07015 v 4.629636 q 0,0.07015 0,0.07015 0,0 0.07015,0 h 4.629636 q 0.07015,0 0.07015,0 0,0 0,-0.07015 v -4.629636 q 0,-0.07015 0,-0.07015 0,0 -0.07015,0 z m 7.0146,0 v 0 q -0.07015,0 -0.07015,0 0,0 0,0.07015 v 4.629636 q 0,0.07015 0,0.07015 0,0 0.07015,0 h 4.629636 q 0.07015,0 0.07015,0 0,0 0,-0.07015 v -4.629636 q 0,-0.07015 0,-0.07015 0,0 -0.07015,0 z m 7.0146,0 v 0 q -0.07015,0 -0.07015,0 0,0 0,0.07015 v 4.629636 q 0,0.07015 0,0.07015 0,0 0.07015,0 h 4.629637 q 0.07015,0 0.07015,0 0,0 0,-0.07015 v -4.629636 q 0,-0.07015 0,-0.07015 0,0 -0.07015,0 z m 7.014601,0 v 0 q -0.07015,0 -0.07015,0 0,0 0,0.07015 v 4.629636 q 0,0.07015 0,0.07015 0,0 0.07015,0 h 4.629636 q 0.07015,0 0.07015,0 0,0 0,-0.07015 v -4.629636 q 0,-0.07015 0,-0.07015 0,0 -0.07015,0 z m -28.0584017,7.0146 v 0 q -0.070146,0 -0.070146,0 0,0 0,0.07015 v 4.629637 q 0,0.07015 0,0.07015 0,0 0.070146,0 h 4.6296367 q 0.07015,0 0.07015,0 0,0 0,-0.07015 v -4.629637 q 0,-0.07015 0,-0.07015 0,0 -0.07015,0 z m 28.0584017,0 v 0 q -0.07015,0 -0.07015,0 0,0 0,0.07015 v 4.629637 q 0,0.07015 0,0.07015 0,0 0.07015,0 h 4.629636 q 0.07015,0 0.07015,0 0,0 0,-0.07015 v -4.629637 q 0,-0.07015 0,-0.07015 0,0 -0.07015,0 z M 5.7114053,80.92432 v 0 q -0.070146,0 -0.070146,0 0,0 0,0.07015 v 4.629636 q 0,0.07015 0,0.07015 0,0 0.070146,0 h 4.6296367 q 0.07015,0 0.07015,0 0,0 0,-0.07015 V 80.99447 q 0,-0.07015 0,-0.07015 0,0 -0.07015,0 z m 28.0584017,0 v 0 q -0.07015,0 -0.07015,0 0,0 0,0.07015 v 4.629636 q 0,0.07015 0,0.07015 0,0 0.07015,0 h 4.629636 q 0.07015,0 0.07015,0 0,0 0,-0.07015 V 80.99447 q 0,-0.07015 0,-0.07015 0,0 -0.07015,0 z m -28.0584017,7.0146 v 0 q -0.070146,0 -0.070146,0 0,0 0,0.07015 v 4.629636 q 0,0.07015 0,0.07015 0,0 0.070146,0 h 4.6296367 q 0.07015,0 0.07015,0 0,0 0,-0.07015 V 88.00907 q 0,-0.07015 0,-0.07015 0,0 -0.07015,0 z m 28.0584017,0 v 0 q -0.07015,0 -0.07015,0 0,0 0,0.07015 v 4.629636 q 0,0.07015 0,0.07015 0,0 0.07015,0 h 4.629636 q 0.07015,0 0.07015,0 0,0 0,-0.07015 V 88.00907 q 0,-0.07015 0,-0.07015 0,0 -0.07015,0 z M 54.813633,59.880519 v 0 q -0.07015,0 -0.07015,0 0,0 0,0.07015 v 4.629636 q 0,0.07015 0,0.07015 0,0 0.07015,0 h 4.629636 q 0.07015,0 0.07015,0 0,0 0,-0.07015 v -4.629636 q 0,-0.07015 0,-0.07015 0,0 -0.07015,0 z m 7.014601,0 v 0 q -0.07015,0 -0.07015,0 0,0 0,0.07015 v 4.629636 q 0,0.07015 0,0.07015 0,0 0.07015,0 h 4.629636 q 0.07015,0 0.07015,0 0,0 0,-0.07015 v -4.629636 q 0,-0.07015 0,-0.07015 0,0 -0.07015,0 z m 7.0146,0 v 0 q -0.07015,0 -0.07015,0 0,0 0,0.07015 v 4.629636 q 0,0.07015 0,0.07015 0,0 0.07015,0 h 4.629636 q 0.07015,0 0.07015,0 0,0 0,-0.07015 v -4.629636 q 0,-0.07015 0,-0.07015 0,0 -0.07015,0 z m -21.043801,7.0146 v 0 q -0.07015,0 -0.07015,0 0,0 0,0.07015 v 4.629636 q 0,0.07015 0,0.07015 0,0 0.07015,0 h 4.629636 q 0.07015,0 0.07015,0 0,0 0,-0.07015 v -4.629636 q 0,-0.07015 0,-0.07015 0,0 -0.07015,0 z m 28.058401,0 v 0 q -0.07015,0 -0.07015,0 0,0 0,0.07015 v 4.629636 q 0,0.07015 0,0.07015 0,0 0.07015,0 h 4.629636 q 0.07015,0 0.07015,0 0,0 0,-0.07015 v -4.629636 q 0,-0.07015 0,-0.07015 0,0 -0.07015,0 z m -28.058401,7.0146 v 0 q -0.07015,0 -0.07015,0 0,0 0,0.07015 v 4.629637 q 0,0.07015 0,0.07015 0,0 0.07015,0 h 4.629636 q 0.07015,0 0.07015,0 0,0 0,-0.07015 v -4.629637 q 0,-0.07015 0,-0.07015 0,0 -0.07015,0 z m 7.0146,0 v 0 q -0.07015,0 -0.07015,0 0,0 0,0.07015 v 4.629637 q 0,0.07015 0,0.07015 0,0 0.07015,0 h 4.629636 q 0.07015,0 0.07015,0 0,0 0,-0.07015 v -4.629637 q 0,-0.07015 0,-0.07015 0,0 -0.07015,0 z m 7.014601,0 v 0 q -0.07015,0 -0.07015,0 0,0 0,0.07015 v 4.629637 q 0,0.07015 0,0.07015 0,0 0.07015,0 h 4.629636 q 0.07015,0 0.07015,0 0,0 0,-0.07015 v -4.629637 q 0,-0.07015 0,-0.07015 0,0 -0.07015,0 z m 7.0146,0 v 0 q -0.07015,0 -0.07015,0 0,0 0,0.07015 v 4.629637 q 0,0.07015 0,0.07015 0,0 0.07015,0 h 4.629636 q 0.07015,0 0.07015,0 0,0 0,-0.07015 v -4.629637 q 0,-0.07015 0,-0.07015 0,0 -0.07015,0 z m 7.0146,0 v 0 q -0.07015,0 -0.07015,0 0,0 0,0.07015 v 4.629637 q 0,0.07015 0,0.07015 0,0 0.07015,0 h 4.629636 q 0.07015,0 0.07015,0 0,0 0,-0.07015 v -4.629637 q 0,-0.07015 0,-0.07015 0,0 -0.07015,0 z M 47.799033,80.92432 v 0 q -0.07015,0 -0.07015,0 0,0 0,0.07015 v 4.629636 q 0,0.07015 0,0.07015 0,0 0.07015,0 h 4.629636 q 0.07015,0 0.07015,0 0,0 0,-0.07015 V 80.99447 q 0,-0.07015 0,-0.07015 0,0 -0.07015,0 z m 7.0146,7.0146 v 0 q -0.07015,0 -0.07015,0 0,0 0,0.07015 v 4.629636 q 0,0.07015 0,0.07015 0,0 0.07015,0 h 4.629636 q 0.07015,0 0.07015,0 0,0 0,-0.07015 V 88.00907 q 0,-0.07015 0,-0.07015 0,0 -0.07015,0 z m 7.014601,0 v 0 q -0.07015,0 -0.07015,0 0,0 0,0.07015 v 4.629636 q 0,0.07015 0,0.07015 0,0 0.07015,0 h 4.629636 q 0.07015,0 0.07015,0 0,0 0,-0.07015 V 88.00907 q 0,-0.07015 0,-0.07015 0,0 -0.07015,0 z m 7.0146,0 v 0 q -0.07015,0 -0.07015,0 0,0 0,0.07015 v 4.629636 q 0,0.07015 0,0.07015 0,0 0.07015,0 h 4.629636 q 0.07015,0 0.07015,0 0,0 0,-0.07015 V 88.00907 q 0,-0.07015 0,-0.07015 0,0 -0.07015,0 z M 96.901261,45.851318 v 0 q -0.07015,0 -0.07015,0 0,0 0,0.07015 V 50.5511 q 0,0.07015 0,0.07015 0,0 0.07015,0 h 4.629639 q 0.0701,0 0.0701,0 0,0 0,-0.07015 v -4.629636 q 0,-0.07015 0,-0.07015 0,0 -0.0701,0 z m 7.014599,0 v 0 q -0.0701,0 -0.0701,0 0,0 0,0.07015 V 50.5511 q 0,0.07015 0,0.07015 0,0 0.0701,0 h 4.62964 q 0.0701,0 0.0701,0 0,0 0,-0.07015 v -4.629636 q 0,-0.07015 0,-0.07015 0,0 -0.0701,0 z m 0,7.0146 v 0 q -0.0701,0 -0.0701,0 0,0 0,0.07015 V 57.5657 q 0,0.07015 0,0.07015 0,0 0.0701,0 h 4.62964 q 0.0701,0 0.0701,0 0,0 0,-0.07015 v -4.629636 q 0,-0.07015 0,-0.07015 0,0 -0.0701,0 z m 0,7.014601 v 0 q -0.0701,0 -0.0701,0 0,0 0,0.07015 v 4.629636 q 0,0.07015 0,0.07015 0,0 0.0701,0 h 4.62964 q 0.0701,0 0.0701,0 0,0 0,-0.07015 v -4.629636 q 0,-0.07015 0,-0.07015 0,0 -0.0701,0 z m 0,7.0146 v 0 q -0.0701,0 -0.0701,0 0,0 0,0.07015 v 4.629636 q 0,0.07015 0,0.07015 0,0 0.0701,0 h 4.62964 q 0.0701,0 0.0701,0 0,0 0,-0.07015 v -4.629636 q 0,-0.07015 0,-0.07015 0,0 -0.0701,0 z m 0,7.0146 v 0 q -0.0701,0 -0.0701,0 0,0 0,0.07015 v 4.629637 q 0,0.07015 0,0.07015 0,0 0.0701,0 h 4.62964 q 0.0701,0 0.0701,0 0,0 0,-0.07015 v -4.629637 q 0,-0.07015 0,-0.07015 0,0 -0.0701,0 z m 0,7.014601 v 0 q -0.0701,0 -0.0701,0 0,0 0,0.07015 v 4.629636 q 0,0.07015 0,0.07015 0,0 0.0701,0 h 4.62964 q 0.0701,0 0.0701,0 0,0 0,-0.07015 V 80.99447 q 0,-0.07015 0,-0.07015 0,0 -0.0701,0 z m -7.014599,7.0146 v 0 q -0.07015,0 -0.07015,0 0,0 0,0.07015 v 4.629636 q 0,0.07015 0,0.07015 0,0 0.07015,0 h 4.629639 q 0.0701,0 0.0701,0 0,0 0,-0.07015 V 88.00907 q 0,-0.07015 0,-0.07015 0,0 -0.0701,0 z m 7.014599,0 v 0 q -0.0701,0 -0.0701,0 0,0 0,0.07015 v 4.629636 q 0,0.07015 0,0.07015 0,0 0.0701,0 h 4.62964 q 0.0701,0 0.0701,0 0,0 0,-0.07015 V 88.00907 q 0,-0.07015 0,-0.07015 0,0 -0.0701,0 z m 7.0146,0 v 0 q -0.0701,0 -0.0701,0 0,0 0,0.07015 v 4.629636 q 0,0.07015 0,0.07015 0,0 0.0701,0 h 4.62964 q 0.0701,0 0.0701,0 0,0 0,-0.07015 V 88.00907 q 0,-0.07015 0,-0.07015 0,0 -0.0701,0 z m 28.05842,-42.087602 v 0 q -0.0701,0 -0.0701,0 0,0 0,0.07015 V 50.5511 q 0,0.07015 0,0.07015 0,0 0.0701,0 h 4.62964 q 0.0702,0 0.0702,0 0,0 0,-0.07015 v -4.629636 q 0,-0.07015 0,-0.07015 0,0 -0.0702,0 z m 7.0146,0 v 0 q -0.0701,0 -0.0701,0 0,0 0,0.07015 V 50.5511 q 0,0.07015 0,0.07015 0,0 0.0701,0 h 4.62964 q 0.0702,0 0.0702,0 0,0 0,-0.07015 v -4.629636 q 0,-0.07015 0,-0.07015 0,0 -0.0702,0 z m 0,7.0146 v 0 q -0.0701,0 -0.0701,0 0,0 0,0.07015 V 57.5657 q 0,0.07015 0,0.07015 0,0 0.0701,0 h 4.62964 q 0.0702,0 0.0702,0 0,0 0,-0.07015 v -4.629636 q 0,-0.07015 0,-0.07015 0,0 -0.0702,0 z m 0,7.014601 v 0 q -0.0701,0 -0.0701,0 0,0 0,0.07015 v 4.629636 q 0,0.07015 0,0.07015 0,0 0.0701,0 h 4.62964 q 0.0702,0 0.0702,0 0,0 0,-0.07015 v -4.629636 q 0,-0.07015 0,-0.07015 0,0 -0.0702,0 z m 0,7.0146 v 0 q -0.0701,0 -0.0701,0 0,0 0,0.07015 v 4.629636 q 0,0.07015 0,0.07015 0,0 0.0701,0 h 4.62964 q 0.0702,0 0.0702,0 0,0 0,-0.07015 v -4.629636 q 0,-0.07015 0,-0.07015 0,0 -0.0702,0 z m 0,7.0146 v 0 q -0.0701,0 -0.0701,0 0,0 0,0.07015 v 4.629637 q 0,0.07015 0,0.07015 0,0 0.0701,0 h 4.62964 q 0.0702,0 0.0702,0 0,0 0,-0.07015 v -4.629637 q 0,-0.07015 0,-0.07015 0,0 -0.0702,0 z m 0,7.014601 v 0 q -0.0701,0 -0.0701,0 0,0 0,0.07015 v 4.629636 q 0,0.07015 0,0.07015 0,0 0.0701,0 h 4.62964 q 0.0702,0 0.0702,0 0,0 0,-0.07015 V 80.99447 q 0,-0.07015 0,-0.07015 0,0 -0.0702,0 z m -7.0146,7.0146 v 0 q -0.0701,0 -0.0701,0 0,0 0,0.07015 v 4.629636 q 0,0.07015 0,0.07015 0,0 0.0701,0 h 4.62964 q 0.0702,0 0.0702,0 0,0 0,-0.07015 V 88.00907 q 0,-0.07015 0,-0.07015 0,0 -0.0702,0 z m 7.0146,0 v 0 q -0.0701,0 -0.0701,0 0,0 0,0.07015 v 4.629636 q 0,0.07015 0,0.07015 0,0 0.0701,0 h 4.62964 q 0.0702,0 0.0702,0 0,0 0,-0.07015 V 88.00907 q 0,-0.07015 0,-0.07015 0,0 -0.0702,0 z m 7.0146,0 v 0 q -0.0701,0 -0.0701,0 0,0 0,0.07015 v 4.629636 q 0,0.07015 0,0.07015 0,0 0.0701,0 h 4.62964 q 0.0702,0 0.0702,0 0,0 0,-0.07015 V 88.00907 q 0,-0.07015 0,-0.07015 0,0 -0.0702,0 z m 28.05844,-28.058401 v 0 q -0.0701,0 -0.0701,0 0,0 0,0.07015 v 4.629636 q 0,0.07015 0,0.07015 0,0 0.0701,0 h 4.62963 q 0.0701,0 0.0701,0 0,0 0,-0.07015 v -4.629636 q 0,-0.07015 0,-0.07015 0,0 -0.0701,0 z m 7.0146,0 v 0 q -0.0701,0 -0.0701,0 0,0 0,0.07015 v 4.629636 q 0,0.07015 0,0.07015 0,0 0.0701,0 h 4.62963 q 0.0701,0 0.0701,0 0,0 0,-0.07015 v -4.629636 q 0,-0.07015 0,-0.07015 0,0 -0.0701,0 z m 7.0146,0 v 0 q -0.0701,0 -0.0701,0 0,0 0,0.07015 v 4.629636 q 0,0.07015 0,0.07015 0,0 0.0701,0 h 4.62963 q 0.0701,0 0.0701,0 0,0 0,-0.07015 v -4.629636 q 0,-0.07015 0,-0.07015 0,0 -0.0701,0 z m -21.04381,7.0146 v 0 q -0.0701,0 -0.0701,0 0,0 0,0.07015 v 4.629636 q 0,0.07015 0,0.07015 0,0 0.0701,0 h 4.62964 q 0.0701,0 0.0701,0 0,0 0,-0.07015 v -4.629636 q 0,-0.07015 0,-0.07015 0,0 -0.0701,0 z m 28.05841,0 v 0 q -0.0701,0 -0.0701,0 0,0 0,0.07015 v 4.629636 q 0,0.07015 0,0.07015 0,0 0.0701,0 h 4.62963 q 0.0701,0 0.0701,0 0,0 0,-0.07015 v -4.629636 q 0,-0.07015 0,-0.07015 0,0 -0.0701,0 z m -28.05841,7.0146 v 0 q -0.0701,0 -0.0701,0 0,0 0,0.07015 v 4.629637 q 0,0.07015 0,0.07015 0,0 0.0701,0 h 4.62964 q 0.0701,0 0.0701,0 0,0 0,-0.07015 v -4.629637 q 0,-0.07015 0,-0.07015 0,0 -0.0701,0 z m 28.05841,0 v 0 q -0.0701,0 -0.0701,0 0,0 0,0.07015 v 4.629637 q 0,0.07015 0,0.07015 0,0 0.0701,0 h 4.62963 q 0.0701,0 0.0701,0 0,0 0,-0.07015 v -4.629637 q 0,-0.07015 0,-0.07015 0,0 -0.0701,0 z m -28.05841,7.014601 v 0 q -0.0701,0 -0.0701,0 0,0 0,0.07015 v 4.629636 q 0,0.07015 0,0.07015 0,0 0.0701,0 h 4.62964 q 0.0701,0 0.0701,0 0,0 0,-0.07015 V 80.99447 q 0,-0.07015 0,-0.07015 0,0 -0.0701,0 z m 28.05841,0 v 0 q -0.0701,0 -0.0701,0 0,0 0,0.07015 v 4.629636 q 0,0.07015 0,0.07015 0,0 0.0701,0 h 4.62963 q 0.0701,0 0.0701,0 0,0 0,-0.07015 V 80.99447 q 0,-0.07015 0,-0.07015 0,0 -0.0701,0 z m -21.0438,7.0146 v 0 q -0.0701,0 -0.0701,0 0,0 0,0.07015 v 4.629636 q 0,0.07015 0,0.07015 0,0 0.0701,0 h 4.62963 q 0.0701,0 0.0701,0 0,0 0,-0.07015 V 88.00907 q 0,-0.07015 0,-0.07015 0,0 -0.0701,0 z m 7.0146,0 v 0 q -0.0701,0 -0.0701,0 0,0 0,0.07015 v 4.629636 q 0,0.07015 0,0.07015 0,0 0.0701,0 h 4.62963 q 0.0701,0 0.0701,0 0,0 0,-0.07015 V 88.00907 q 0,-0.07015 0,-0.07015 0,0 -0.0701,0 z m 7.0146,0 v 0 q -0.0701,0 -0.0701,0 0,0 0,0.07015 v 4.629636 q 0,0.07015 0,0.07015 0,0 0.0701,0 h 4.62963 q 0.0701,0 0.0701,0 0,0 0,-0.07015 V 88.00907 q 0,-0.07015 0,-0.07015 0,0 -0.0701,0 z"
       id="text3"
       style="font-weight:600;font-size:70.146px;font-family:Doto;-inkscape-font-specification:'Doto Semi-Bold';fill:#e30757;stroke:#930606;stroke-width:0;stroke-linecap:round;stroke-linejoin:round;stroke-miterlimit:4.1"
       aria-label="Hello" />
  </g>
</svg>
